<?xml version="1.0" encoding="utf-8"?>
<!-- Generator: Adobe Illustrator 16.0.4, SVG Export Plug-In . SVG Version: 6.00 Build 0)  -->
<!DOCTYPE svg PUBLIC "-//W3C//DTD SVG 1.1//EN" "http://www.w3.org/Graphics/SVG/1.1/DTD/svg11.dtd">
<svg version="1.1" id="Layer_1" xmlns="http://www.w3.org/2000/svg" xmlns:xlink="http://www.w3.org/1999/xlink" x="0px" y="0px"
	 width="349.612px" height="350px" viewBox="-17 -17 349.612 350" enable-background="new -17 -17 349.612 350"
	 xml:space="preserve">
<path fill="#07CCA4" d="M158-17c96.657,0,175,78.343,175,175s-78.343,175-175,175S-17,254.657-17,158S61.343-17,158-17z"/>
<path fill="#2EA284" d="M30.436,208.801L235.67,314.859c59.83-28.359,94.497-97.359,96.396-138.668L180.317,89.936l2.449,27.071
	l-20.1-14.195L30.436,208.801z"/>
<path fill="#2EA284" d="M235.67,141.592l95.435,44.221c1.896-16.354,2.227-32.175,1.613-37.83l-63.442-31.36L235.67,141.592z"/>
<path fill="#2EA284" d="M237.012,65.529l-23.496,37.572l119.097,64.522c0.012-0.775,0.456-4.614,0.374-7.436
	c-0.426-14.686-0.736-26.156-4.911-43.565L237.012,65.529z"/>
<g>
	<path fill="#FFFFFF" d="M239.465,142.38c0.746-0.041,1.48-0.2,2.186-0.473l27.535-10.713c1.758-0.684,3.144-2.011,3.906-3.742
		c0.758-1.73,0.801-3.649,0.117-5.406l-0.721-1.854c-1.111-2.854-3.908-4.661-6.965-4.497c-0.748,0.04-1.482,0.199-2.185,0.472
		l-27.537,10.713c-1.76,0.684-3.146,2.013-3.905,3.741c-0.763,1.728-0.804,3.648-0.117,5.407l0.719,1.854
		C233.611,140.737,236.41,142.544,239.465,142.38z"/>
	<path fill="#FFFFFF" d="M241.537,71.529c-0.309-1.888-1.334-3.542-2.887-4.658l-1.64-1.177c-1.215-0.872-2.645-1.338-4.135-1.346
		c-2.315-0.013-4.508,1.103-5.856,2.981l-17.482,24.326c-2.303,3.207-1.57,7.688,1.635,9.992l1.639,1.178
		c1.215,0.872,2.646,1.337,4.136,1.346c2.317,0.013,4.508-1.103,5.856-2.981l17.482-24.326
		C241.4,75.31,241.846,73.416,241.537,71.529z"/>
	<path fill="#FFFFFF" d="M190.357,115.51l-1.998-6.321c-0.281-0.885-0.558-1.772-0.834-2.658l-0.142-0.446
		c-1.09-3.478-2.215-7.075-3.448-10.582c-1.238-3.53-4.777-6.192-8.23-6.192c-0.379,0-0.758,0.033-1.121,0.097
		c-4.139,0.731-6.867,4.341-6.955,9.202l-0.002,0.21l0.049,0.21c0.059,0.234,0.121,0.506,0.189,0.805l0.021,0.087
		c0.201,0.885,0.449,1.987,0.798,3.091c9.727,30.862,19.198,60.87,28.151,89.188l0.75,2.383c1.244,3.965,2.531,8.066,4.019,12.062
		c1.252,3.364,4.619,5.807,8.008,5.807c0.328,0,0.658-0.025,0.979-0.072c3.963-0.598,6.852-3.85,7.025-7.91
		c0.088-2.113-0.506-4.203-1.178-6.336C207.773,170.588,198.92,142.587,190.357,115.51z"/>
	<path fill="#FFFFFF" d="M279.67,181.664c-1.115-1.686-2.816-2.84-4.797-3.246l-31.105-6.387c-0.637-0.131-1.285-0.18-1.932-0.146
		c-3.426,0.186-6.307,2.664-6.998,6.033l-0.432,2.096c-0.406,1.98-0.018,3.998,1.096,5.687c1.113,1.687,2.814,2.84,4.795,3.245
		l31.104,6.388c0.638,0.129,1.289,0.181,1.933,0.144c3.431-0.185,6.31-2.662,7-6.031l0.431-2.094
		C281.168,185.369,280.779,183.35,279.67,181.664z"/>
	<path fill="#FFFFFF" d="M192.635,200.025c-9.729-30.767-19.449-61.536-29.162-92.307c-1.32-4.184-3.455-6.305-6.343-6.305
		c-1.646,0-3.48,0.705-5.611,2.155c-10.235,6.969-20.474,13.935-30.71,20.901l-3.435,2.336
		c-8.334,5.671-16.669,11.343-25.003,17.016c-21.806,14.844-43.61,29.692-65.411,44.546c-3.594,2.45-4.411,4.799-3.121,8.978
		c0.543,1.758,1.102,3.51,1.66,5.262l0.544,1.711c1.521,4.785,2.861,5.754,7.966,5.758c4.251,0.002,8.503,0.004,12.755,0.004
		l19.344-0.002c0.066,1.072,0.132,2.135,0.198,3.199c0.22,3.559,0.429,6.922,0.613,10.336c0.256,4.752,2.887,7.27,7.606,7.281
		c12.739,0.032,25.34,0.053,37.457,0.057h0.008c5.588,0,7.894-2.168,8.222-7.73c0.198-3.354,0.417-6.619,0.649-10.076l0.206-3.065
		l36.706,0.002c9.176,0,18.352-0.002,27.525-0.006c3.437-0.002,5.722-0.845,6.99-2.578
		C193.564,205.76,193.674,203.314,192.635,200.025z M110.564,220.592h-33.46l-1.054-13.609h34.515L110.564,220.592L110.564,220.592z
		"/>
</g>
</svg>
