<?xml version="1.0" encoding="utf-8"?>
<!-- Generator: Adobe Illustrator 16.0.4, SVG Export Plug-In . SVG Version: 6.00 Build 0)  -->
<!DOCTYPE svg PUBLIC "-//W3C//DTD SVG 1.1//EN" "http://www.w3.org/Graphics/SVG/1.1/DTD/svg11.dtd">
<svg version="1.1" id="Layer_1" xmlns="http://www.w3.org/2000/svg" xmlns:xlink="http://www.w3.org/1999/xlink" x="0px" y="0px"
	 width="350px" height="350px" viewBox="-17 -17 350 350" enable-background="new -17 -17 350 350" xml:space="preserve">
<path fill="#07CCA4" d="M210.005,127.079l0.088-0.717c0.087-0.738,0.214-1.422,0.335-2.085c0.231-1.276,0.428-2.359,0.284-3.263
	c-0.284-1.779-1.504-3.336-3.831-4.902c-0.789-0.531-1.686-1.666-1.781-2.903c-0.207-2.569-1.684-4.14-4.271-4.542
	c-1.005-0.156-2.322-0.807-3-1.906c-1.912-3.101-3.844-4.423-6.458-4.423c-1.026,0-2.177,0.191-3.517,0.584l-1.312,0.386
	l-0.635-1.213c-2.188-4.186-5.396-5.493-10.056-4.137c-0.836,0.245-2.006,0.011-2.78-0.541c-3.878-2.76-7.923-2.832-13.076-0.24
	c-0.634,0.318-1.404,0.643-2.333,0.643c-0.579,0-1.165-0.125-1.794-0.385c-1.355-0.559-2.709-0.842-4.023-0.842
	c-2.799,0-5.357,1.329-7.207,3.743c-0.479,0.625-1.277,1.457-2.664,1.457c-0.466,0-0.916-0.098-1.255-0.182
	c-0.769-0.192-1.578-0.29-2.404-0.29c-4.021,0-8.076,2.259-10.09,5.623c-0.637,1.064-1.98,1.612-2.935,1.757
	c-2.583,0.393-5.427,1.992-4.945,5.204l0.165,1.103l-0.956,0.574c-4.677,2.812-6.988,5.776-7.976,10.233
	c-0.737,3.329-0.479,6.04,0.747,7.84c0.875,1.284,2.281,2.111,4.063,2.393l1.427,0.226l-0.019,1.444
	c-0.065,4.842,0.827,5.985,5.611,7.198c3.037,0.77,6.049,1.256,9.67,1.812c1.595,0.244,3.204,0.377,4.906,0.518
	c0.783,0.064,1.573,0.129,2.373,0.206l2.268,0.219l-1.113,2.613c-0.088,0.209-0.16,0.378-0.233,0.547
	c-1.47,3.338-0.851,5.563,2.138,7.679c2.154,1.525,4.697,2.469,8.245,3.059c4.248,0.707,10.157,2.455,12.463,9.441
	c0.627,1.898,1.306,3.816,1.959,5.674c0.687,1.942,1.463,4.147,2.158,6.285l0.051,0.154c0.235,0.72,0.522,1.605,0.685,1.846
	c0.271,0.082,1.198,0.102,1.953,0.115l0.234,0.003c0.074,0,0.158,0,0.22-0.002c0.021-0.078,0.048-0.203,0.078-0.375
	c0.384-2.175,0.869-4.343,1.379-6.64l0.046-0.195c0.207-0.927,0.418-1.882,0.635-2.881l0.723-3.348l2.189,2.631
	c0.258,0.312,0.481,0.592,0.688,0.85l0.065,0.083c0.375,0.476,0.674,0.851,0.977,1.146c2.247,2.195,4.75,3.354,7.243,3.354
	c3.591,0,6.709-2.503,8.347-6.696c0.417-1.068,0.732-2.236,1.036-3.365l0.028-0.102c0.148-0.548,0.299-1.104,0.465-1.66l0.46-1.561
	l2.151,0.578c0.363,0.1,0.711,0.195,1.058,0.277c0.929,0.223,1.833,0.336,2.685,0.336c2.256,0,4.122-0.771,5.398-2.232
	c1.462-1.672,2.057-4.18,1.669-7.062c-0.156-1.158,0.565-2.634,1.575-3.226c2.488-1.457,4.088-3.516,4.752-6.119
	c2.051-8.025,0.517-15.172-4.562-21.24L210.005,127.079z"/>
<circle fill="#07CCA4" cx="158" cy="158" r="175"/>
<path fill="#FFFFFF" d="M100.762,70.264c1.685,2.023,4.163,3.184,6.799,3.184c2.062,0,4.07-0.729,5.656-2.049
	c1.815-1.512,2.933-3.64,3.147-5.992c0.215-2.353-0.5-4.648-2.012-6.463L97.599,38.831c-1.686-2.023-4.164-3.184-6.799-3.184
	c-2.062,0-4.071,0.728-5.657,2.049c-3.747,3.121-4.256,8.709-1.136,12.456L100.762,70.264z"/>
<path fill="#FFFFFF" d="M163.236,58.914c4.877,0,8.844-3.967,8.844-8.844V23.894c0-4.876-3.967-8.844-8.844-8.844
	c-4.876,0-8.844,3.967-8.844,8.844V50.07C154.393,54.947,158.36,58.914,163.236,58.914z"/>
<path fill="#FFFFFF" d="M240.048,41.466c-1.573-1.283-3.557-1.99-5.584-1.99c-2.673,0-5.172,1.187-6.858,3.255l-16.543,20.287
	c-3.082,3.779-2.515,9.361,1.266,12.442c1.574,1.284,3.558,1.991,5.585,1.991c2.672,0,5.172-1.187,6.858-3.255l16.543-20.287
	C244.396,50.13,243.827,44.548,240.048,41.466z"/>
<path fill="#2EA284" d="M332.397,172.575L197.146,85.656l26.924,39.621l-13.961,59.805l-49.358,65.354l-33.531,43.922l78.626,32.021
	c0,0,70.708-13.092,110.79-94.393C316.635,231.986,331.498,201.766,332.397,172.575z"/>
<path fill="#FFFFFF" d="M232.945,137.954c-4.213-26.918-23.317-48.78-47.99-57.602c-7.625-2.727-15.781-4.208-24.195-4.208
	c-3.462,0-6.961,0.255-10.399,0.759c-30.161,4.419-50.662,21.623-60.935,51.133c-3.308,9.501-3.491,19.265-3.388,30.126
	c0.014,1.398-0.358,2.958-1.02,4.283c-2.021,4.047-4.138,8.115-6.189,12.062c-1.788,3.438-3.636,6.994-5.413,10.519
	c-2.82,5.589-1.106,10.945,4.474,13.976l0.604,0.327c2.114,1.15,4.3,2.341,6.561,3.354c0.911,0.407,1.092,0.703,1.08,1.754
	c-0.064,5.728-0.054,11.549-0.044,17.213c0.004,1.783,0.007,3.565,0.008,5.35c0.006,11.616,7.859,19.434,19.541,19.453
	c2.566,0.004,5.131,0.005,7.698,0.005l13.884-0.003v47.906h1.591c13.567,0,26.87-13.685,39.737-26.918
	c12.497-12.854,25.423-26.145,37.834-26.145h1.591l0.002-2.195c0.002-1.736,0.01-7.023-0.039-30.56
	c-0.002-1.472,0.375-2.321,1.496-3.368C229.135,186.764,237.046,164.146,232.945,137.954z M214.721,148.873
	c-0.664,2.603-2.264,4.662-4.753,6.119c-1.009,0.592-1.729,2.068-1.575,3.226c0.389,2.882-0.205,5.392-1.668,7.062
	c-1.276,1.462-3.145,2.234-5.398,2.234c-0.852,0-1.756-0.113-2.686-0.337c-0.347-0.083-0.691-0.179-1.057-0.276l-2.152-0.58
	l-0.459,1.562c-0.166,0.558-0.314,1.112-0.465,1.66l-0.027,0.103c-0.306,1.127-0.619,2.295-1.037,3.363
	c-1.637,4.194-4.756,6.697-8.348,6.697c-2.492,0-4.996-1.159-7.242-3.354c-0.304-0.297-0.601-0.67-0.978-1.146l-0.065-0.083
	c-0.207-0.258-0.431-0.538-0.688-0.851l-2.189-2.631l-0.723,3.349c-0.216,0.999-0.43,1.954-0.636,2.881l-0.044,0.196
	c-0.512,2.296-0.995,4.464-1.379,6.639c-0.031,0.172-0.059,0.297-0.079,0.375c-0.062,0.002-0.146,0.002-0.22,0.002l-0.234-0.003
	c-0.754-0.015-1.682-0.033-1.955-0.115c-0.159-0.239-0.447-1.126-0.684-1.846l-0.049-0.154c-0.695-2.138-1.474-4.343-2.16-6.286
	c-0.653-1.855-1.332-3.773-1.959-5.673c-2.305-6.985-8.214-8.733-12.461-9.44c-3.549-0.592-6.091-1.533-8.245-3.06
	c-2.989-2.116-3.608-4.341-2.139-7.679c0.074-0.169,0.145-0.337,0.234-0.547l1.113-2.613l-2.268-0.219
	c-0.801-0.077-1.59-0.142-2.373-0.206c-1.703-0.141-3.311-0.273-4.906-0.518c-3.622-0.556-6.633-1.042-9.671-1.812
	c-4.784-1.213-5.676-2.356-5.611-7.198l0.019-1.444l-1.427-0.226c-1.783-0.281-3.188-1.109-4.063-2.393
	c-1.226-1.8-1.484-4.511-0.747-7.84c0.989-4.457,3.299-7.422,7.977-10.233l0.956-0.574l-0.166-1.103
	c-0.482-3.212,2.362-4.812,4.945-5.204c0.955-0.145,2.298-0.693,2.935-1.757c2.015-3.363,6.07-5.623,10.091-5.623
	c0.827,0,1.636,0.098,2.404,0.29c0.339,0.084,0.789,0.182,1.255,0.182c1.387,0,2.185-0.831,2.664-1.457
	c1.849-2.414,4.408-3.743,7.207-3.743c1.313,0,2.668,0.283,4.023,0.842c0.628,0.26,1.214,0.385,1.794,0.385
	c0.928,0,1.7-0.325,2.333-0.643c5.153-2.592,9.197-2.52,13.076,0.24c0.773,0.552,1.945,0.785,2.779,0.541
	c4.659-1.356,7.868-0.049,10.057,4.137l0.635,1.213l1.312-0.386c1.339-0.393,2.49-0.584,3.517-0.584
	c2.613,0,4.547,1.323,6.459,4.423c0.678,1.1,1.994,1.75,2.998,1.906c2.588,0.402,4.064,1.973,4.271,4.542
	c0.1,1.237,0.994,2.373,1.783,2.903c2.326,1.566,3.546,3.124,3.83,4.902c0.145,0.904-0.053,1.987-0.284,3.263
	c-0.121,0.663-0.247,1.347-0.335,2.085l-0.088,0.717l0.464,0.554C215.236,133.701,216.771,140.848,214.721,148.873z"/>
<g>
	<path fill="#2EA284" d="M324.164,102.946l-82.839-60.617c2.901,3.183,3.128,8.103,0.323,11.539l-16.543,20.287
		c-1.687,2.068-4.186,3.255-6.856,3.255c-1.587,0-3.476-0.389-4.832-1.191l118.707,101.215
		C334.062,151.125,333.062,126.595,324.164,102.946z"/>
</g>
<g>
	<path fill="#2EA284" d="M94.424,36.109l0.047,0.197c1.311,0.541,2.491,1.384,3.423,2.504l16.753,20.114
		c1.513,1.814,2.228,4.11,2.012,6.462c-0.214,2.354-1.332,4.48-3.147,5.992c-1.585,1.321-3.593,2.049-5.656,2.049
		c-1.694,0-3.321-0.485-4.717-1.366l0.051,0.213l20.757,13.171c7.837-4.236,16.742-7.102,26.709-8.562
		c3.438-0.504,4.911-0.56,5.076-0.559L94.424,36.109z"/>
	<path fill="#2EA284" d="M309.424,203.139c3.346-11.23,5.473-22.984,6.233-35.111l-90.732-54.102
		c4.091,7.313,6.97,15.399,8.316,24.008c0.94,6.007,1.241,11.824,0.92,17.447L309.424,203.139z"/>
</g>
<g>
	<path fill="#E5E5E4" d="M200.518,108.623c0.402,0.062,0.77,0.164,1.118,0.283l-5.454-4.048c0.451,0.532,0.896,1.143,1.336,1.859
		C198.195,107.816,199.514,108.467,200.518,108.623z"/>
	<path fill="#E5E5E4" d="M232.945,137.912c-0.258-1.647-0.572-3.275-0.939-4.882l-0.516-2.073l-27.508-20.309
		c0.451,0.685,0.725,1.525,0.805,2.518c0.099,1.237,0.994,2.373,1.783,2.903c2.326,1.566,3.546,3.124,3.83,4.902
		c0.145,0.905-0.053,1.987-0.284,3.263c-0.121,0.663-0.247,1.347-0.335,2.085l-0.088,0.717l0.464,0.554
		c5.079,6.068,6.612,13.215,4.562,21.24c-0.665,2.603-2.264,4.662-4.753,6.119c-1.009,0.592-1.73,2.069-1.574,3.226
		c0.387,2.884-0.207,5.392-1.67,7.062c-1.275,1.462-3.144,2.234-5.397,2.234c-0.853,0-1.757-0.113-2.685-0.337
		c-0.348-0.083-0.692-0.179-1.058-0.276l-2.153-0.58l-0.457,1.562c-0.166,0.558-0.315,1.113-0.466,1.66l-0.028,0.103
		c-0.305,1.127-0.619,2.295-1.035,3.363c-1.639,4.194-4.758,6.697-8.35,6.697c-2.49,0-4.994-1.159-7.24-3.354
		c-0.305-0.297-0.602-0.67-0.979-1.146l-0.064-0.083c-0.207-0.258-0.432-0.538-0.688-0.851l-2.188-2.631l-0.724,3.349
		c-0.216,0.999-0.431,1.954-0.636,2.881l-0.045,0.196c-0.51,2.295-0.994,4.464-1.379,6.639c-0.03,0.172-0.058,0.297-0.078,0.375
		c-0.062,0.002-0.146,0.002-0.219,0.002l-0.235-0.003c-0.754-0.015-1.681-0.033-1.955-0.115l39.274,23.515
		c0.008-1.43,0.391-2.273,1.494-3.305C229.135,186.721,237.046,164.105,232.945,137.912z"/>
	<path fill="#E5E5E4" d="M193.252,102.684l-0.039-0.029l-0.004,0.013C193.225,102.673,193.238,102.679,193.252,102.684z"/>
</g>
<path fill="#2EA284" d="M316,158.166c0-19.238-3.441-37.67-9.738-54.721l-69.322-43.626l-11.857,14.543
	c-1.688,2.068-4.186,3.255-6.857,3.255c-2.026,0-4.012-0.707-5.586-1.991c-3.777-3.081-4.347-8.663-1.264-12.442l8.416-10.773
	l-51.127-35.559l-0.002,0.007c2.254,1.604,3.73,4.231,3.73,7.202v26.177c0,4.876-3.969,8.844-8.846,8.844
	c-1.648,0-3.188-0.462-4.51-1.25l-0.04,0.165L315.559,170.02C315.85,166.104,316,162.152,316,158.166z"/>
</svg>
